<svg width="20" height="20" viewBox="0 0 20 20" fill="none" xmlns="http://www.w3.org/2000/svg">
<g clip-path="url(#clip0_2_744)">
<path d="M14.4154 8.62958H18.0883V15.1158H14.4154V8.62958Z" fill="#1976D2"/>
<path d="M8.16357 8.62958H11.8365V15.1158H8.16357V8.62958Z" fill="#1976D2"/>
<path d="M18.7916 16.288C18.2016 16.288 1.92257 16.288 1.20846 16.288C0.562108 16.288 0.0362549 16.8139 0.0362549 17.4602V18.8278C0.0362549 19.4742 0.562108 20 1.20846 20H18.7916C19.438 20 19.9638 19.4742 19.9638 18.8278V17.4602C19.9638 16.8139 19.438 16.288 18.7916 16.288Z" fill="#1976D2"/>
<path d="M19.2292 3.67993C10.2003 -0.0118686 10.4419 0.0868706 10.4354 0.0842527C10.1568 -0.0272244 9.8471 -0.0294907 9.56053 0.0858938L0.770839 3.67993C0.324501 3.85951 0.0362549 4.28611 0.0362549 4.76738V6.2852C0.0362549 6.93156 0.562108 7.45741 1.20846 7.45741H18.7916C19.438 7.45741 19.9638 6.93156 19.9638 6.2852V4.76738C19.9638 4.28611 19.6756 3.85951 19.2292 3.67993ZM10.5861 4.37055C10.5861 4.69424 10.3237 4.95666 10 4.95666C9.67635 4.95666 9.41393 4.69424 9.41393 4.37055V3.1202C9.41393 2.79651 9.67635 2.53409 10 2.53409C10.3237 2.53409 10.5861 2.79651 10.5861 3.1202V4.37055Z" fill="#1976D2"/>
<path d="M1.91174 8.62958H5.58466V15.1158H1.91174V8.62958Z" fill="#1976D2"/>
</g>
<defs>
<clipPath id="clip0_2_744">
<rect width="20" height="20" fill="white"/>
</clipPath>
</defs>
</svg>
