<svg width="16" height="21" viewBox="0 0 16 21" fill="none" xmlns="http://www.w3.org/2000/svg">
<path fill-rule="evenodd" clip-rule="evenodd" d="M8.62044 20.6211C10.486 18.9273 15.9167 13.5813 15.9167 8.74992C15.9167 4.37766 12.3723 0.833252 8.00004 0.833252C3.62779 0.833252 0.083374 4.37766 0.083374 8.74992C0.083374 13.5813 5.51412 18.9273 7.37964 20.6211C7.73645 20.9451 8.26363 20.9451 8.62044 20.6211ZM8.00004 11.2499C9.38075 11.2499 10.5 10.1306 10.5 8.74992C10.5 7.36921 9.38075 6.24992 8.00004 6.24992C6.61933 6.24992 5.50004 7.36921 5.50004 8.74992C5.50004 10.1306 6.61933 11.2499 8.00004 11.2499Z" fill="#1976D2"/>
</svg>
