<svg width="177" height="34" viewBox="0 0 177 34" fill="none" xmlns="http://www.w3.org/2000/svg">
<g clip-path="url(#clip0_2_653)">
<path fill-rule="evenodd" clip-rule="evenodd" d="M15.366 33.4797L21.221 28.9797H24.0933C26.8228 28.9797 29.0355 26.7713 29.0355 24.047V4.93272C29.0355 2.20846 26.8228 0 24.0933 0H4.94221C2.21271 0 0 2.20846 0 4.93272V24.047C0 26.7713 2.21271 28.9797 4.94221 28.9797H13.5911V32.608C13.5911 33.2157 14.0846 33.7083 14.6934 33.7083C14.9367 33.7083 15.1732 33.6279 15.366 33.4797ZM3.70665 4.93272C3.70665 4.25166 4.25982 3.69954 4.94221 3.69954H24.0933C24.7756 3.69954 25.3288 4.25166 25.3288 4.93272V24.047C25.3288 24.7281 24.7756 25.2802 24.0933 25.2802H4.94221C4.25982 25.2802 3.70665 24.7281 3.70665 24.047V4.93272Z" fill="#1976D2"/>
<path fill-rule="evenodd" clip-rule="evenodd" d="M11.5834 14.644C11.5834 16.1764 12.828 17.4187 14.3634 17.4187C15.8987 17.4187 17.1433 16.1764 17.1433 14.644C17.1433 13.1117 15.8987 11.8694 14.3634 11.8694C12.828 11.8694 11.5834 13.1117 11.5834 14.644ZM15.5989 14.644C15.5989 15.3251 15.0457 15.8772 14.3634 15.8772C13.681 15.8772 13.1278 15.3251 13.1278 14.644C13.1278 13.963 13.681 13.4109 14.3634 13.4109C15.0457 13.4109 15.5989 13.963 15.5989 14.644Z" fill="#1976D2"/>
<path d="M15.2899 12.6402C15.2899 13.0659 14.9442 13.4109 14.5177 13.4109C14.0912 13.4109 13.7455 13.0659 13.7455 12.6402V6.166C13.7455 5.74036 14.0912 5.39526 14.5177 5.39526C14.9442 5.39526 15.2899 5.74036 15.2899 6.166V12.6402Z" fill="#1976D2"/>
<path d="M16.6799 15.4148C16.2534 15.4148 15.9077 15.0697 15.9077 14.644C15.9077 14.2184 16.2534 13.8733 16.6799 13.8733H23.1666C23.593 13.8733 23.9388 14.2184 23.9388 14.644C23.9388 15.0697 23.593 15.4148 23.1666 15.4148H16.6799Z" fill="#1976D2"/>
<path d="M9.30206 19.5485C8.97646 19.8235 8.4892 19.783 8.21374 19.458C7.93824 19.1331 7.97888 18.6468 8.30443 18.3718L12.0773 15.1855C12.4028 14.9106 12.8901 14.9511 13.1655 15.2761C13.441 15.601 13.4004 16.0873 13.0748 16.3623L9.30206 19.5485Z" fill="#1976D2"/>
<path fill-rule="evenodd" clip-rule="evenodd" d="M41.7604 21.9283C41.0619 21.9283 40.7127 21.7376 40.7127 21.3562V10.2871H37.352C37.1675 10.2871 37.0324 10.2213 36.9467 10.0898C36.8611 9.95824 36.8182 9.74123 36.8182 9.43868V8.92565C36.8182 8.62316 36.8611 8.40609 36.9467 8.27455C37.0324 8.14302 37.1675 8.07725 37.352 8.07725H46.6631C46.8476 8.07725 46.9827 8.14302 47.0683 8.27455C47.154 8.40609 47.1968 8.62316 47.1968 8.92565V9.43868C47.1968 9.74123 47.154 9.95824 47.0683 10.0898C46.9827 10.2213 46.8476 10.2871 46.6631 10.2871H43.3222V21.3562C43.3222 21.7376 42.9729 21.9283 42.2744 21.9283H41.7604ZM49.9843 21.9481C49.2725 21.9481 48.9167 21.7508 48.9167 21.3562V8.60998C48.9167 8.21537 49.2725 8.01807 49.9843 8.01807H50.4785C51.177 8.01807 51.5262 8.21537 51.5262 8.60998V21.3562C51.5262 21.7508 51.177 21.9481 50.4785 21.9481H49.9843ZM61.055 18.3965C60.7516 18.3965 60.5274 18.2847 60.3824 18.0611L57.5753 13.1086C57.4175 12.885 57.2656 12.6153 57.1205 12.2997L57.0419 12.3194C57.0547 12.543 57.0616 12.8784 57.0616 13.3257V21.3562C57.0616 21.7376 56.712 21.9283 56.0139 21.9283H55.5789C54.8803 21.9283 54.5312 21.7376 54.5312 21.3562V8.60998C54.5312 8.22849 54.8803 8.03778 55.5789 8.03778H56.508C57.0749 8.03778 57.4435 8.19561 57.6151 8.51133L61.055 14.5687C61.1867 14.7924 61.2919 15.0094 61.3711 15.2199C61.4237 15.0488 61.5294 14.8252 61.6872 14.549L65.1472 8.51133C65.3183 8.19561 65.6806 8.03778 66.2341 8.03778H67.1436C67.8422 8.03778 68.1913 8.22849 68.1913 8.60998V21.3562C68.1913 21.7376 67.8422 21.9283 67.1436 21.9283H66.7085C66.0099 21.9283 65.6609 21.7376 65.6609 21.3562V13.3652C65.6609 12.9179 65.6673 12.5825 65.6806 12.3589L65.6014 12.3391C65.4569 12.6548 65.305 12.9245 65.1472 13.1481L62.3597 18.0611C62.2147 18.2847 61.9905 18.3965 61.6872 18.3965H61.055ZM72.0662 21.8889C71.8154 21.8889 71.6311 21.8297 71.5126 21.7113C71.3936 21.5929 71.3347 21.4088 71.3347 21.1589V8.80729C71.3347 8.54422 71.3936 8.35679 71.5126 8.24496C71.6311 8.13313 71.8154 8.07725 72.0662 8.07725H78.9852C79.1695 8.07725 79.3045 8.14302 79.3905 8.27455C79.4761 8.40609 79.5191 8.62316 79.5191 8.92565V9.43868C79.5191 9.74123 79.4761 9.95824 79.3905 10.0898C79.3045 10.2213 79.1695 10.2871 78.9852 10.2871H73.9245V13.7203H78.4316C78.616 13.7203 78.7514 13.7861 78.837 13.9176C78.9225 14.0491 78.9655 14.2661 78.9655 14.5687V15.0817C78.9655 15.3843 78.9225 15.6013 78.837 15.7328C78.7514 15.8644 78.616 15.9301 78.4316 15.9301H73.9245V19.679H79.0049C79.1892 19.679 79.3247 19.7448 79.4102 19.8763C79.4957 20.0078 79.5388 20.2249 79.5388 20.5275V21.0404C79.5388 21.343 79.4957 21.5601 79.4102 21.6916C79.3247 21.8231 79.1892 21.8889 79.0049 21.8889H72.0662Z" fill="#1976D2"/>
<path fill-rule="evenodd" clip-rule="evenodd" d="M87.1032 18.8276C86.7212 18.8276 86.5305 18.7233 86.5305 18.5147V11.652C86.5305 11.5082 86.5629 11.4056 86.6277 11.3445C86.6925 11.2833 86.7935 11.2528 86.9306 11.2528H90.4331C90.534 11.2528 90.6079 11.2888 90.6546 11.3607C90.7014 11.4326 90.7253 11.5513 90.7253 11.7168V11.9973C90.7253 12.1628 90.7014 12.2815 90.6546 12.3534C90.6079 12.4254 90.534 12.4613 90.4331 12.4613H87.9463V14.3388H90.3141C90.415 14.3388 90.4889 14.3748 90.5356 14.4467C90.5829 14.5187 90.6063 14.6373 90.6063 14.8028V15.0834C90.6063 15.2488 90.5829 15.3675 90.5356 15.4395C90.4889 15.5114 90.415 15.5474 90.3141 15.5474H87.9463V18.5147C87.9463 18.6226 87.9017 18.7017 87.8114 18.7521C87.7216 18.8024 87.5755 18.8276 87.3736 18.8276H87.1032ZM95.0279 18.8815C93.925 18.8815 93.0782 18.5507 92.4874 17.8888C91.8961 17.227 91.6008 16.2703 91.6008 15.0186C91.6008 13.7741 91.8961 12.8228 92.4874 12.1646C93.0782 11.5064 93.925 11.1772 95.0279 11.1772C96.1307 11.1772 96.9754 11.5045 97.563 12.1592C98.1505 12.8138 98.4443 13.7669 98.4443 15.0186C98.4443 16.2703 98.1505 17.227 97.563 17.8888C96.9754 18.5507 96.1307 18.8815 95.0279 18.8815ZM95.0279 17.6731C95.6622 17.6731 96.1467 17.4464 96.4819 16.9933C96.8171 16.5401 96.9845 15.8818 96.9845 15.0186C96.9845 14.1554 96.8187 13.5008 96.4872 13.0548C96.1557 12.6088 95.6691 12.3858 95.0279 12.3858C94.3861 12.3858 93.8979 12.6088 93.5627 13.0548C93.228 13.5008 93.0601 14.1554 93.0601 15.0186C93.0601 15.8818 93.228 16.5401 93.5627 16.9933C93.8979 17.4464 94.3861 17.6731 95.0279 17.6731ZM100.401 18.8276C100.019 18.8276 99.8277 18.7233 99.8277 18.5147V11.652C99.8277 11.5153 99.8585 11.4147 99.9196 11.3499C99.9812 11.2851 100.08 11.2528 100.217 11.2528H102.228C103.129 11.2528 103.797 11.4182 104.233 11.7491C104.67 12.0801 104.887 12.5764 104.887 13.2382C104.887 13.6554 104.776 14.0151 104.552 14.3173C104.329 14.6194 104.022 14.846 103.634 14.997V15.0402C103.792 15.0978 103.943 15.2254 104.087 15.4233C104.232 15.6211 104.361 15.8639 104.477 16.1516L105.396 18.4392C105.424 18.5398 105.439 18.601 105.439 18.6226C105.439 18.7592 105.244 18.8276 104.855 18.8276H104.531C104.214 18.8276 104.026 18.7592 103.969 18.6226L103.125 16.5077C102.996 16.2128 102.843 16.0077 102.666 15.8926C102.489 15.7776 102.221 15.72 101.86 15.72H101.244V18.5147C101.244 18.7233 101.053 18.8276 100.671 18.8276H100.401ZM102.412 14.5007C102.686 14.5007 102.923 14.3946 103.125 14.1824C103.327 13.9701 103.428 13.7202 103.428 13.4325C103.428 13.1231 103.331 12.8839 103.136 12.7149C102.941 12.5459 102.675 12.4613 102.336 12.4613H101.244V14.5007H102.412Z" fill="#1976D2"/>
<path d="M85.7167 9.71122C85.3751 9.71122 85.0989 9.43518 85.0989 9.09465C85.0989 8.75412 85.3751 8.47803 85.7167 8.47803H105.485C105.827 8.47803 106.103 8.75412 106.103 9.09465C106.103 9.43518 105.827 9.71122 105.485 9.71122H85.7167Z" fill="#1976D2"/>
<path d="M85.7167 21.4265C85.3751 21.4265 85.0989 21.1505 85.0989 20.8099C85.0989 20.4694 85.3751 20.1934 85.7167 20.1934H105.485C105.827 20.1934 106.103 20.4694 106.103 20.8099C106.103 21.1505 105.827 21.4265 105.485 21.4265H85.7167Z" fill="#1976D2"/>
<path fill-rule="evenodd" clip-rule="evenodd" d="M111.768 21.9284C111.043 21.9284 110.681 21.7969 110.681 21.5338C110.681 21.4944 110.707 21.3825 110.76 21.1984L115.228 8.41277C115.307 8.16281 115.643 8.03786 116.236 8.03786H117.106C117.686 8.03786 118.021 8.16281 118.114 8.41277L122.582 21.1984C122.621 21.3299 122.641 21.4417 122.641 21.5338C122.641 21.7969 122.325 21.9284 121.692 21.9284H121.079C120.499 21.9284 120.163 21.8035 120.071 21.5536L119.162 18.8504H114.101L113.191 21.5536C113.099 21.8035 112.809 21.9284 112.322 21.9284H111.768ZM118.41 16.6406L116.967 12.2998C116.862 11.9972 116.769 11.5894 116.691 11.0765H116.612C116.598 11.1553 116.565 11.3264 116.513 11.5894C116.46 11.8525 116.394 12.0893 116.315 12.2998L114.832 16.6406H118.41ZM125.092 21.889C124.842 21.889 124.657 21.8297 124.539 21.7114C124.42 21.593 124.361 21.4088 124.361 21.1589V8.80738C124.361 8.5443 124.42 8.35688 124.539 8.24505C124.657 8.13322 124.842 8.07733 125.092 8.07733H129.244C131.208 8.07733 132.739 8.65608 133.84 9.81367C134.94 10.9712 135.491 12.6944 135.491 14.9832C135.491 17.2719 134.94 18.9951 133.84 20.1526C132.739 21.3102 131.208 21.889 129.244 21.889H125.092ZM129.185 19.6791C130.331 19.6791 131.224 19.2878 131.863 18.5051C132.502 17.7224 132.822 16.5485 132.822 14.9832C132.822 13.4178 132.502 12.2438 131.863 11.4612C131.224 10.6785 130.331 10.2872 129.185 10.2872H126.97V19.6791H129.185ZM142.093 21.9284C141.501 21.9284 141.171 21.8035 141.105 21.5536L136.736 8.76791C136.697 8.62325 136.677 8.51142 136.677 8.43247C136.677 8.1694 137.033 8.03786 137.744 8.03786H138.239C138.818 8.03786 139.161 8.1957 139.267 8.51142L142.291 17.7455L142.489 18.5544H142.568L142.785 17.7455L145.849 8.51142C145.955 8.1957 146.298 8.03786 146.877 8.03786H147.332C148.044 8.03786 148.399 8.1694 148.399 8.43247C148.399 8.51142 148.38 8.62325 148.34 8.76791L143.971 21.5536C143.906 21.8035 143.576 21.9284 142.983 21.9284H142.093ZM151.207 21.9482C150.495 21.9482 150.139 21.7509 150.139 21.3562V8.61007C150.139 8.21546 150.495 8.01815 151.207 8.01815H151.701C152.4 8.01815 152.749 8.21546 152.749 8.61007V21.3562C152.749 21.7509 152.4 21.9482 151.701 21.9482H151.207ZM161.684 22.0271C159.47 22.0271 157.839 21.4549 156.792 20.3105C155.744 19.1661 155.22 17.3838 155.22 14.9634C155.22 10.2806 157.401 7.93921 161.764 7.93921C162.409 7.93921 163.061 8.00827 163.721 8.1464C164.379 8.28452 164.894 8.45877 165.262 8.66925C165.592 8.85344 165.757 9.05074 165.757 9.26117C165.757 9.41906 165.694 9.62619 165.569 9.88273C165.444 10.1392 165.298 10.3661 165.134 10.5634C164.969 10.7607 164.821 10.8594 164.689 10.8594C164.65 10.8594 164.492 10.7936 164.215 10.6621C163.938 10.5305 163.592 10.4122 163.177 10.3069C162.762 10.2017 162.277 10.1491 161.724 10.1491C160.419 10.1491 159.454 10.5437 158.828 11.3329C158.202 12.1222 157.889 13.3389 157.889 14.9832C157.889 16.6011 158.202 17.8112 158.828 18.6136C159.454 19.416 160.406 19.8172 161.684 19.8172C162.291 19.8172 162.818 19.7514 163.266 19.6199C163.714 19.4884 164.142 19.3239 164.551 19.1266C164.762 19.0214 164.906 18.9688 164.986 18.9688C165.131 18.9688 165.279 19.0642 165.431 19.2549C165.582 19.4456 165.711 19.666 165.816 19.9159C165.922 20.1658 165.974 20.3434 165.974 20.4486C165.974 20.7512 165.75 21.0274 165.302 21.2773C164.88 21.5141 164.333 21.6982 163.661 21.8298C162.989 21.9613 162.33 22.0271 161.684 22.0271ZM168.861 21.889C168.61 21.889 168.425 21.8297 168.307 21.7114C168.188 21.593 168.129 21.4088 168.129 21.1589V8.80738C168.129 8.5443 168.188 8.35688 168.307 8.24505C168.425 8.13322 168.61 8.07733 168.861 8.07733H175.78C175.964 8.07733 176.099 8.1431 176.185 8.27464C176.27 8.40618 176.313 8.62325 176.313 8.92574V9.43877C176.313 9.74132 176.27 9.95833 176.185 10.0899C176.099 10.2214 175.964 10.2872 175.78 10.2872H170.719V13.7204H175.226C175.41 13.7204 175.546 13.7861 175.631 13.9177C175.717 14.0492 175.76 14.2662 175.76 14.5688V15.0818C175.76 15.3844 175.717 15.6014 175.631 15.7329C175.546 15.8644 175.41 15.9302 175.226 15.9302H170.719V19.6791H175.799C175.984 19.6791 176.119 19.7449 176.204 19.8764C176.29 20.0079 176.333 20.225 176.333 20.5275V21.0405C176.333 21.3431 176.29 21.5601 176.204 21.6917C176.119 21.8232 175.984 21.889 175.799 21.889H168.861Z" fill="#1976D2"/>
</g>
<defs>
<clipPath id="clip0_2_653">
<rect width="176.375" height="34" fill="white"/>
</clipPath>
</defs>
</svg>
